<svg xmlns="http://www.w3.org/2000/svg" viewBox="0 0 27.09 25.77"><g id="Layer_2" data-name="Layer 2"><g id="Layer_1-2" data-name="Layer 1"><path d="M21.6,25.77a.52.52,0,0,1-.29-.09L13.54,20,5.78,25.68a.53.53,0,0,1-.59,0A.49.49,0,0,1,5,25.12L8,16,.21,10.34A.49.49,0,0,1,0,9.79.5.5,0,0,1,.5,9.44h9.6l3-9.13a.52.52,0,0,1,.95,0l3,9.13h9.6a.5.5,0,0,1,.47.35.49.49,0,0,1-.18.55L19.11,16l3,9.13a.51.51,0,0,1-.18.56A.53.53,0,0,1,21.6,25.77ZM2,10.44l6.81,5A.51.51,0,0,1,9,16L6.43,24,13.25,19a.49.49,0,0,1,.59,0L20.65,24l-2.6-8a.51.51,0,0,1,.18-.56l6.82-5H16.62a.49.49,0,0,1-.47-.35l-2.61-8-2.6,8a.5.5,0,0,1-.48.35Z"/></g></g></svg>