<svg xmlns="http://www.w3.org/2000/svg" viewBox="0 0 27.09 25.81"><g id="Layer_2" data-name="Layer 2"><g id="Layer_1-2" data-name="Layer 1"><path d="M27.07,9.81a.5.5,0,0,0-.48-.34H17L14,.34h0a.16.16,0,0,0,0-.07.41.41,0,0,0-.05-.09l0,0A.48.48,0,0,0,13.8.06h0A.49.49,0,0,0,13.63,0h-.16a.39.39,0,0,0-.15.06h0l-.1.08,0,0-.05.07s0,0,0,.08h0l-3,9.13H.5A.5.5,0,0,0,0,9.81a.51.51,0,0,0,.19.56L8,16,5,25.15a.5.5,0,0,0,.77.56l7.78-5.65,7.77,5.65a.5.5,0,0,0,.77-.56l-3-9.13,7.76-5.65A.51.51,0,0,0,27.07,9.81Zm-8.83,5.61a.51.51,0,0,0-.19.56l2.61,8-6.61-4.81V3.66l2.1,6.46a.48.48,0,0,0,.47.35h8.43Z"/></g></g></svg>