<svg xmlns="http://www.w3.org/2000/svg" viewBox="0 0 140.88 160.01"><defs><style>.cls-1{fill:#fff;}.cls-2{fill:#c72230;}.cls-3{font-size:44.55px;fill:#308c9b;font-family:AsherPunk, Asher Punk;}</style></defs><g id="Layer_2" data-name="Layer 2"><g id="Layer_1-2" data-name="Layer 1"><path class="cls-1" d="M138.55,74.46a2.48,2.48,0,0,0,.66-.31,2.33,2.33,0,0,0,1.66-2.22c0-.06,0-.12,0-.17a3.17,3.17,0,0,0-.07-.73,2.23,2.23,0,0,0-1.24-1.57,4.13,4.13,0,0,0-.85-.31c-.44-.12-1.07-.25-2-.4s-1.71-.27-2.57-.37a19.28,19.28,0,0,0-2.1-.17h-.41a3,3,0,0,0-1.09-.16,8,8,0,0,0-.94,0l-1.77.14-3,.18-.57,0c-.31-3.09-.55-6.09-.77-8.92-.78-9.78-1.44-18.22-4.8-23.68a65.45,65.45,0,0,0-8.11-10.23c-2.88-3.14-5.37-5.85-6.85-9.3C100.64,8.91,78.72,0,67.36,0a15.73,15.73,0,0,0-3.78.41c-7.82,2-11.36,4.83-12.64,6.14-3.23.68-16.3,3.91-20.24,12.77-1.26,2.82-3.33,4.45-5.73,6.34-4.57,3.59-9.75,7.66-10.21,20.56A61.59,61.59,0,0,1,.5,83.22,2,2,0,0,0,2,86.54l.28,0c.46-.07,3.88-.69,8.35-5.2.11,5.74-.17,13.77-1.76,19.48a4.44,4.44,0,0,1-.49-.24l-.13-.08a3.33,3.33,0,0,0-.71-.59l-.14-.07v-.06a8.86,8.86,0,0,0-.28-.89,4.83,4.83,0,0,0-.35-.72,2.75,2.75,0,0,0-.15-.65l0-.09c0-.09,0-.18,0-.27a2,2,0,0,0,.25-1,2.09,2.09,0,0,0-.13-.73,2.22,2.22,0,0,0-1.57-2l-.08,0-.09,0a2.2,2.2,0,0,0-1.06-.27,2.53,2.53,0,0,0-1.06.24,3.74,3.74,0,0,0-.72.47A2.23,2.23,0,0,0,1,94.53a2.36,2.36,0,0,0-.53,1.1l0,.1a2.91,2.91,0,0,0-.32.58,2.59,2.59,0,0,0,.57,2.62h0s0,0,0,0a.84.84,0,0,1,.05.17c.05.2.09.39.15.56a1.72,1.72,0,0,0,0,.39v.11A3,3,0,0,0,1,101a2.47,2.47,0,0,0,.46.88,2.86,2.86,0,0,0,1,1.47,2.49,2.49,0,0,0,1.46,1.56h0A4.17,4.17,0,0,0,5,106.24a2.3,2.3,0,0,0,1.35.45,2.2,2.2,0,0,0,.37,0,2,2,0,0,0,2,1.71h.12a1.59,1.59,0,0,0,.12.27,2,2,0,0,0,1.77,1.08,2,2,0,0,0,.55-.08,13.93,13.93,0,0,0,3.66-1.88,8.32,8.32,0,0,0,1.09-.47l.34-.15a18.74,18.74,0,0,1-1.7,5.68,2,2,0,0,0,.58,2.54,1.93,1.93,0,0,0,1.18.4,2,2,0,0,0,1.42-.59,37.72,37.72,0,0,0,3.09-3.62,19.22,19.22,0,0,1-1.3,5.09,2,2,0,0,0,1.83,2.81,1.8,1.8,0,0,0,.6-.1,15,15,0,0,0,7.56-6.07,29.78,29.78,0,0,1,1.92,12.42c-.44,6.56-1.43,8.42-1.69,8.8a2,2,0,0,0,1,3.73l.33,0,.23-.06h0A8.76,8.76,0,0,0,36.2,134c1.38,3.95,3.18,9.34,4.12,13.07a2,2,0,0,0,1.94,1.51h.14a2,2,0,0,0,1.85-1.8c0-.53.25-2.64.41-5.31a43,43,0,0,1,1,6.58,2,2,0,0,0,1.47,1.81,2.32,2.32,0,0,0,.52.07,2,2,0,0,0,1.66-.88c.28-.41,6.82-10.23,4.33-22.33a2,2,0,0,0-.47-.93c-3.51-3.91-8.72-10.24-9.31-12-.25-1-.46-6.49-.57-13.83a2.27,2.27,0,0,0,.26-.35,2.37,2.37,0,0,0,.27-.8,3.14,3.14,0,0,0,1-1.79l.11-.16.09-.17.05-.06a2.29,2.29,0,0,0,.39-.76,5.37,5.37,0,0,0,.4-.63,3.54,3.54,0,0,0,.36-.83,2.35,2.35,0,0,0,.78-.87,2.84,2.84,0,0,0,.22-.68,3.77,3.77,0,0,0,.43-.64,3.13,3.13,0,0,0,.23-.54c.06-.08.11-.17.17-.26s.05-.09.07-.14,0,0,0,0a2.07,2.07,0,0,0,.27-.41c.09-.12.17-.22.21-.29a4.64,4.64,0,0,0,.26-.44,1.84,1.84,0,0,0,.22.17,2.87,2.87,0,0,0,.45.39,2,2,0,0,0,.73.31,7,7,0,0,0,1.4.06h2.19L59.13,91c.74,0,1.38,0,1.9-.06a4.27,4.27,0,0,0,1.4-.24l.24,0a3.47,3.47,0,0,0,1.89-.51,2,2,0,0,0,.49-.29,2.2,2.2,0,0,0,.61-.75,2.17,2.17,0,0,0,.47-.83,2,2,0,0,0,.06-1.88.31.31,0,0,0,0-.1,2.21,2.21,0,0,0-1.26-1,1.76,1.76,0,0,0-.3-.1,7.83,7.83,0,0,0-1.4-.16c-.63,0-1.35-.08-2.18-.11s-1.42-.06-2-.1l-.22,0a2.22,2.22,0,0,0-.94-.21,2,2,0,0,0-1,.24,2.51,2.51,0,0,0-1-.24,2.3,2.3,0,0,0-.9.19H54.2a2.78,2.78,0,0,0-.85-.25,2.93,2.93,0,0,0-.49,0,3,3,0,0,0-.56,0,2.53,2.53,0,0,1,.12-.23,2.37,2.37,0,0,1,.22-.33c.36-.48.67-.91.93-1.31l.2-.32a2,2,0,0,0,.9.21,2,2,0,0,0,.82-.17,2,2,0,0,0,1.13-2.26s-.13-.62-.34-1.65c.1-.18.22-.36.37-.58s.34-.53.49-.79l.27-.49.1-.13a.68.68,0,0,1,.12-.12,4.39,4.39,0,0,0,.59-.65,3.12,3.12,0,0,0,.31-.5c.1-.12.19-.24.26-.34a5.28,5.28,0,0,0,.4-.71,3.25,3.25,0,0,0,.56-.54,6.43,6.43,0,0,0,.58-.82c.16-.23.3-.44.43-.61s.07-.09.09-.12l.06-.06a3.42,3.42,0,0,0,.41-.5,2.68,2.68,0,0,0,.23-.42,3.17,3.17,0,0,0,.64-2v-.28a2.85,2.85,0,0,0-.87-2,3.35,3.35,0,0,0-.7-.54l-.11-.06a2.5,2.5,0,0,0-.52-.19,2,2,0,0,0-1.15-.36,2.36,2.36,0,0,0-.91.2,4,4,0,0,0-1,.67c-.28.22-.64.56-1.12,1s-.82.82-1.25,1.26c-1.12-6.86-2.41-16.29-3.1-26.57C56.73,54.51,66.32,73.33,77.8,80.22a2,2,0,0,0,2.82-.83A12,12,0,0,0,84,81.1a2.08,2.08,0,0,0,.55.07,2,2,0,0,0,1.69-.93A2,2,0,0,0,86,77.86L85.29,77c.35-.1.66-.2.92-.3l0,0c.38.21.75.42,1.13.61a.78.78,0,0,0,0,.14,4.1,4.1,0,0,0-.17.6c0,.1,0,.25-.07.45l-.06.47c0,.13,0,.21-.06.26a2.5,2.5,0,0,0-.71,1.55,1.73,1.73,0,0,0-.4.53,2.05,2.05,0,0,0-.21.77l0,.08c0,.11-.08.21-.11.31l-.2.3a2.22,2.22,0,0,0-.51,1.44v.13a5.05,5.05,0,0,0-.34.41,5.71,5.71,0,0,0-.52.87,4.79,4.79,0,0,1-.25.45,2.41,2.41,0,0,0-.58.95l-.06.23a3,3,0,0,0-.06.6l-.23.4a2.29,2.29,0,0,0-.45.48,3.3,3.3,0,0,0-.48.91c0,.14-.08.29-.11.44a3.92,3.92,0,0,0-.59.72,9.7,9.7,0,0,0-.58,1,5.55,5.55,0,0,1-.32.61h0a4,4,0,0,0-.56.64,5.22,5.22,0,0,0-.53.93c0,.05,0,.11-.07.17l-.15.16q-.27.3-.57.69a9.23,9.23,0,0,0-.54.77,3.8,3.8,0,0,0-.36.7.15.15,0,0,1,0,.06,4.2,4.2,0,0,0-.48.78c-.05.11-.1.22-.14.33l-.32.25c-.23.19-.44.37-.62.55-.6.54-1.46,1.3-2.56,2.25a2.83,2.83,0,0,1-.28.2h0l-.32.08-.62.19-.29.08c-.05,0-.1,0-.06,0a2.82,2.82,0,0,0-.92.15l-.13,0h-.17a2.22,2.22,0,0,0-.8.15h0c-.25-.07-.49-.15-.71-.23l-.09,0-.26-.17a2.48,2.48,0,0,0-.87-.29l-.08,0a6.27,6.27,0,0,1-.58-.29,1.25,1.25,0,0,1-.12-.08,3.15,3.15,0,0,0-.72-.59l-.14-.07v-.06a8.86,8.86,0,0,0-.28-.89,6.09,6.09,0,0,0-.34-.72,4.3,4.3,0,0,0-.15-.65l0-.09a2.51,2.51,0,0,0,0-.27,2,2,0,0,0,.25-1,2.09,2.09,0,0,0-.13-.73,2.22,2.22,0,0,0-1.57-2l-.08,0-.09,0a2.2,2.2,0,0,0-1.06-.27,2.53,2.53,0,0,0-1.06.24,4.07,4.07,0,0,0-.72.47,2.31,2.31,0,0,0-1.14.72,2.36,2.36,0,0,0-.53,1.1l0,.1a2.91,2.91,0,0,0-.32.58,2.63,2.63,0,0,0-.14.83,2.7,2.7,0,0,0,.71,1.79h0l.06.17c0,.2.09.39.14.56a2.58,2.58,0,0,0,0,.39v.11a3,3,0,0,0,.12.83,2.47,2.47,0,0,0,.46.88,2.93,2.93,0,0,0,1,1.47,2.49,2.49,0,0,0,1.46,1.56h0a4.17,4.17,0,0,0,1.11,1.32,2.31,2.31,0,0,0,1.36.45,2.16,2.16,0,0,0,.62-.09l0,0a5.33,5.33,0,0,0,.47.42l.16.12a2.12,2.12,0,0,0,.87.55,2.26,2.26,0,0,0,.53.1,2.83,2.83,0,0,0,1.4.39h.11a2.85,2.85,0,0,0,1,.18,3.4,3.4,0,0,0,1.47-.35,1.72,1.72,0,0,1,.32,0,4.6,4.6,0,0,0,1.37-.21,9.49,9.49,0,0,0,1.29-.55l.55-.24h.09a2,2,0,0,0,1.64-.85,6.85,6.85,0,0,0,1.82-1.29c.1-.09.25-.21.43-.38l.43-.37a24.47,24.47,0,0,0,1.81-1.68,5.46,5.46,0,0,0,.91-1.16,2,2,0,0,0,.91-1.35c.13-.23.3-.51.5-.84s.42-.65.61-.93l.34-.46a3.51,3.51,0,0,0,.37-.47c.08-.11.14-.21.2-.31a2.41,2.41,0,0,0,.68-.65,3.08,3.08,0,0,0,.37-.66s0-.07,0-.11a1.89,1.89,0,0,0,.09-.34c.08-.12.14-.23.2-.33s.07-.15.11-.23a3.77,3.77,0,0,0,.35-.48,8.37,8.37,0,0,0,.43-.73c.18-.37.38-.75.58-1.14s.38-.7.54-1a1.42,1.42,0,0,0,.12-.25c.06-.14.12-.28.17-.42a3.86,3.86,0,0,0,.15-.51,3.35,3.35,0,0,1,.15-.35c.12-.22.22-.42.31-.63s.07-.17.1-.26a3.67,3.67,0,0,0,.5-.7,4.79,4.79,0,0,0,.34-.81c0-.12.1-.27.17-.43s.15-.34.19-.42c.14-.26.25-.5.34-.71a3.75,3.75,0,0,0,.21-.69c.11-.2.23-.47.39-.85s.31-.82.44-1.25a6.14,6.14,0,0,0,.24-.89l0-.07c.06-.15.14-.32.26-.56l.14-.33a12.19,12.19,0,0,1-.31,6.35l-.61.16a3.94,3.94,0,0,0-.88.32A2.13,2.13,0,0,0,90,89.39a2,2,0,0,0-.33,1.12,2.5,2.5,0,0,0,.58,1.56,4.86,4.86,0,0,0,.63.65,2.65,2.65,0,0,0,1,.54,2.42,2.42,0,0,0,1,.34l-.21.24a5,5,0,0,0-1,1.4,3.07,3.07,0,0,0-.35.3,8.7,8.7,0,0,0-.67.69,3.4,3.4,0,0,0-.52.82l-.07.07c-.17.17-.31.32-.43.46a3.27,3.27,0,0,0-.41.57l-.13.14c-.51.56-1,1.13-1.53,1.74a12,12,0,0,0-1.13,1.45,1,1,0,0,0-.1.17,2.38,2.38,0,0,0-.25,1.08,2.89,2.89,0,0,0,0,.53,4.71,4.71,0,0,0,.25.91,3,3,0,0,0,.38.69,2.12,2.12,0,0,0,1.91,1.22,2.29,2.29,0,0,0,1.44-.53,2.1,2.1,0,0,0,.6-.19,3.34,3.34,0,0,0,1-.76,5.13,5.13,0,0,0,.62-.83,4.62,4.62,0,0,1,.31-.37c.25-.28.53-.59.82-.88s.71-.74,1-1a4.56,4.56,0,0,0,.59-.82,3.19,3.19,0,0,0,.37-.44,2.1,2.1,0,0,0,.94-1.09l0,0c.13-.2.29-.42.46-.66l.51-.66.11-.14a3,3,0,0,0,.5-.56,27,27,0,0,0,4.65-4.9l.31,0c-.06.83-.12,1.67-.19,2.51a2.17,2.17,0,0,0-.42,1.19,2.38,2.38,0,0,0-.13.76,2.65,2.65,0,0,0,.26,1.11c0,.11,0,.22,0,.33s0,.1,0,.15c-.73,8.15-1.71,15.38-2.83,17.12a40,40,0,0,1-5.84,6.44c-2.79,2.68-4.25,4.15-4.52,5.72-.31,1.9-.86,14.14-1,17.39-.66.87-2,2.68-4.7,6.62a2,2,0,0,0,1,3,8.5,8.5,0,0,0,2.53.37,7.05,7.05,0,0,0,5.32-2.19c1.9,2.27,5,5.6,7.59,7.05a2,2,0,0,0,2.39-.36,2,2,0,0,0,.3-2.4c-1.81-3.14-4.53-9.11-4.12-11.78.22-1.39,1.59-4.52,3-7.83.67-1.54,1.38-3.16,2.07-4.82a2,2,0,0,0,3.79.42,60.24,60.24,0,0,0,4.44-17.78c1.8,2.4,4.22,4.37,7.39,4.53h.1A2,2,0,0,0,121,116.5a29,29,0,0,1-5.07-10.64,9.31,9.31,0,0,0,1.71-.2,12.34,12.34,0,0,0,4.06.75,9.32,9.32,0,0,0,1.4-.1,2,2,0,0,0,1.44-1.06,2.13,2.13,0,0,0,.82-.49,1.88,1.88,0,0,0,.59-.28,1.7,1.7,0,0,0,.24-.22c3.31,2.66,7.26,4.89,11.2,4.89a9.64,9.64,0,0,0,1.87-.17,2,2,0,0,0,1.61-1.71,2,2,0,0,0-1.14-2.07c-.09,0-8.11-4-12.3-18.68.17-.34.34-.66.49-1s.33-.63.45-.82.18-.35.29-.59l.24-.6a2.41,2.41,0,0,1,.08-.25.55.55,0,0,0,.09-.14,6.44,6.44,0,0,0,.34-.6l.52-1c.16-.33.36-.71.59-1.14s.45-.83.62-1.13.41-.73.57-1a7.74,7.74,0,0,0,.36-.77,6.42,6.42,0,0,0,.45-.66c.15-.25.3-.51.44-.8s.23-.42.37-.68.27-.46.36-.6a4.17,4.17,0,0,0,.26-.37c.29,0,.66,0,1.12,0q1,0,1.77.06l.56,0a1.54,1.54,0,0,1-.49-.16,2.38,2.38,0,0,0,1,.21A2.53,2.53,0,0,0,138.55,74.46Zm-12.76.87-.09.28a3.4,3.4,0,0,0-.21.28l-.19.29c-.07-.48-.14-1-.2-1.43l.23-.08.81-.06A2.58,2.58,0,0,0,125.79,75.33ZM44.59,81a3.78,3.78,0,0,0-.53.83,2.63,2.63,0,0,0-.83.83c0-3.75.09-7.51.19-11.09,0-.09.06-.17.08-.26a5.75,5.75,0,0,0,.18-.76,2,2,0,0,0,0-.78c0-.1-.08-.26-.16-.47.08-2.59.18-5.06.3-7.33a70.58,70.58,0,0,0,5.33,13.31c-.17.2-.33.41-.51.63L47.68,77a5.15,5.15,0,0,0-.59.87L47,78a21.62,21.62,0,0,0-1.63,2q-.19.27-.42.54Z"/><path class="cls-2" d="M43.26,49s1.35,17.44,11.41,31.53a277.55,277.55,0,0,1-5.7-50s13.08,37.91,29.85,48a79.31,79.31,0,0,1-6-9.73s7,9.06,11.74,10.4c0,0-7-8-8.39-12.75,0,0,7.72,7.72,15.1,10.4s2.35,14.09,2.35,14.09,5-6.37,5.7-13.42c0,0,.33,11.41-2.68,18.12a25.29,25.29,0,0,0,9-15.77s-1.34,31.87-4.36,36.57-9.73,9.39-10.06,11.41-1,17.78-1,17.78-.26.19-5,7c0,0,5,1.68,7-3.35,0,0,5,6.71,8.73,8.72,0,0-5-8.72-4.36-13.08s9-18.79,9-26.51a18.29,18.29,0,0,1,0,13.76s6-13.42,4-26.51c0,0,3,11.75,9.73,12.08,0,0-6.71-8.38-5.71-16.44,0,0,4.7,3.69,9.06,3,0,0-3.35-3-3.35-10.06,0,0,10.4,14.42,19.46,12.75,0,0-10.4-4.7-14.43-24.16s-2-37.24-7.38-46S105,24.15,102,17.11,73.46,0,64.06,2.35,52,8.39,52,8.39,36.55,11.07,32.53,20.13,17.43,27.51,16.76,46.3A63.16,63.16,0,0,1,2,84.54s4.7-.67,10.4-8.39c0,0,1.68,21.81-3.69,30.2A71.75,71.75,0,0,0,15.08,96s1,7.38-4.36,11.74c0,0,4.7-1.34,8-7,0,0,.34,8-2.34,13.09A36.5,36.5,0,0,0,23.14,104s.67,8-1.68,13.42a13,13,0,0,0,8.05-9.06,31.37,31.37,0,0,1,4,17.44c-.68,10.07-2.69,10.4-2.69,10.4s4-1,5.37-8c0,0,4.36,11.74,6,18.45,0,0,1.34-13.42,0-17.78A52.54,52.54,0,0,1,47.63,148s6.37-9.4,4-20.8c0,0-8.72-9.73-9.73-12.75S40.58,57,43.26,49Z"/><text class="cls-3" transform="translate(5.7 101.12)">JY-JAI</text></g></g></svg>