<svg xmlns="http://www.w3.org/2000/svg" viewBox="0 0 192.1 191.88"><g id="Layer_2" data-name="Layer 2"><g id="Layer_1-2" data-name="Layer 1"><path d="M124.65,146.61c-41.26,25.46-86,11.38-108.38-18.5C-7.61,96.24-4.95,53.19,22.57,24.37,49.33-3.65,93-8,125.25,13.9,155.18,34.24,174,79.89,147,124.32c13.11,13.11,26.26,26.31,39.47,39.44,4.46,4.44,6.64,9.61,5.09,15.82-3.1,12.49-17.78,16.46-27.13,7.28-12.13-11.9-24.06-24-36.06-36C127.12,149.55,126,148.11,124.65,146.61ZM80.13,23.91A56.15,56.15,0,0,0,24.05,79.72c-.06,30.81,25,56.12,55.68,56.22a56,56,0,1,0,.4-112Z"/></g></g></svg>